<svg xmlns="http://www.w3.org/2000/svg" width="720" height="430" viewBox="0 0 720 430" role="img" aria-labelledby="title desc"><title id="title">Exhibit 3. FY2026 cash available for distribution</title><desc id="desc">Start at 2055.43 crore, add 78.40 crore unpaid zero-coupon-bond interest adjustment, 93.61 crore first reserve release and 6.80 crore second reserve release. The total is 2234.24 crore. This is not consolidated operating cash flow.</desc><rect width="720" height="430" fill="#fafbf8"/><g font-family="system-ui,-apple-system,sans-serif"><text x="28" y="34" font-size="22" fill="#21372b" text-anchor="start" font-weight="bold">NHIT FY2026 distribution cash bridge</text><text x="28" y="60" font-size="16" fill="#526459" text-anchor="start" font-weight="normal">₹ crore · trust level · financing adjustments included</text><line x1="76" y1="300.0" x2="690" y2="300.0" stroke="#d3ded5"/><text x="66" y="305.0" font-size="14" fill="#526459" text-anchor="end" font-weight="normal">0</text><line x1="76" y1="250.0" x2="690" y2="250.0" stroke="#d3ded5"/><text x="66" y="255.0" font-size="14" fill="#526459" text-anchor="end" font-weight="normal">600</text><line x1="76" y1="200.0" x2="690" y2="200.0" stroke="#d3ded5"/><text x="66" y="205.0" font-size="14" fill="#526459" text-anchor="end" font-weight="normal">1,200</text><line x1="76" y1="150.0" x2="690" y2="150.0" stroke="#d3ded5"/><text x="66" y="155.0" font-size="14" fill="#526459" text-anchor="end" font-weight="normal">1,800</text><line x1="76" y1="100.0" x2="690" y2="100.0" stroke="#d3ded5"/><text x="66" y="105.0" font-size="14" fill="#526459" text-anchor="end" font-weight="normal">2,400</text><rect x="96.00" y="128.71" width="64.00" height="171.29" fill="#27704d"/><text x="128" y="94" font-size="15" fill="#21372b" text-anchor="middle" font-weight="bold">2,055.43</text><line x1="128" y1="102" x2="128" y2="124.7141666666667" stroke="#526459"/><line x1="160" y1="128.7141666666667" x2="217" y2="128.7141666666667" stroke="#526459"/><text x="128" y="327" font-size="14" fill="#21372b" text-anchor="middle" font-weight="normal">Trust NDCF</text><text x="128" y="348" font-size="14" fill="#21372b" text-anchor="middle" font-weight="normal">before</text><text x="128" y="369" font-size="14" fill="#21372b" text-anchor="middle" font-weight="normal">adjustments</text><rect x="217.00" y="122.18" width="64.00" height="6.53" fill="#446a8a"/><text x="249" y="94" font-size="15" fill="#21372b" text-anchor="middle" font-weight="bold">+78.40</text><line x1="249" y1="102" x2="249" y2="118.18083333333334" stroke="#526459"/><line x1="281" y1="122.18083333333334" x2="338" y2="122.18083333333334" stroke="#526459"/><text x="249" y="327" font-size="14" fill="#21372b" text-anchor="middle" font-weight="normal">Unpaid ZCB</text><text x="249" y="348" font-size="14" fill="#21372b" text-anchor="middle" font-weight="normal">interest</text><text x="249" y="369" font-size="14" fill="#21372b" text-anchor="middle" font-weight="normal">adjustment</text><rect x="338.00" y="114.38" width="64.00" height="7.80" fill="#446a8a"/><text x="370" y="94" font-size="15" fill="#21372b" text-anchor="middle" font-weight="bold">+93.61</text><line x1="370" y1="102" x2="370" y2="110.38" stroke="#526459"/><line x1="402" y1="114.38" x2="459" y2="114.38" stroke="#526459"/><text x="370" y="327" font-size="14" fill="#21372b" text-anchor="middle" font-weight="normal">First DSRA</text><text x="370" y="348" font-size="14" fill="#21372b" text-anchor="middle" font-weight="normal">release</text><rect x="459.00" y="113.81" width="64.00" height="0.70" fill="#446a8a"/><text x="491" y="94" font-size="15" fill="#21372b" text-anchor="middle" font-weight="bold">+6.80</text><line x1="491" y1="102" x2="491" y2="109.81333333333333" stroke="#526459"/><line x1="523" y1="113.81333333333333" x2="580" y2="113.81333333333333" stroke="#526459"/><text x="491" y="327" font-size="14" fill="#21372b" text-anchor="middle" font-weight="normal">Second DSRA</text><text x="491" y="348" font-size="14" fill="#21372b" text-anchor="middle" font-weight="normal">release</text><rect x="580.00" y="113.81" width="64.00" height="186.19" fill="#27704d"/><text x="612" y="94" font-size="15" fill="#21372b" text-anchor="middle" font-weight="bold">2,234.24</text><line x1="612" y1="102" x2="612" y2="109.81333333333336" stroke="#526459"/><text x="612" y="327" font-size="14" fill="#21372b" text-anchor="middle" font-weight="normal">Adjusted cash</text><text x="612" y="348" font-size="14" fill="#21372b" text-anchor="middle" font-weight="normal">available</text><text x="28" y="393" font-size="14" fill="#526459" text-anchor="start" font-weight="normal">DSRA: debt-service reserve account. Unpaid interest remains an obligation.</text><text x="28" y="416" font-size="14" fill="#526459" text-anchor="start" font-weight="normal">This bridge includes specified post-year-end SPV receipts; see the article caveats.</text></g></svg>
